<svg id="Layer_1" data-name="Layer 1" xmlns="http://www.w3.org/2000/svg" xmlns:xlink="http://www.w3.org/1999/xlink" viewBox="0 0 533.65 479.32"><defs><style>.cls-1{opacity:0.24;}.cls-2{fill:url(#linear-gradient);}.cls-3,.cls-4,.cls-44{fill:#e86733;}.cls-3{opacity:0.24;}.cls-3,.cls-44{isolation:isolate;}.cls-5{fill:url(#linear-gradient-2);}.cls-6{fill:url(#linear-gradient-3);}.cls-35,.cls-7{fill:#333398;}.cls-38,.cls-39,.cls-42,.cls-43,.cls-7{opacity:0.5;}.cls-8{fill:url(#linear-gradient-4);}.cls-9{fill:url(#linear-gradient-5);}.cls-10{fill:url(#linear-gradient-6);}.cls-11{fill:url(#linear-gradient-7);}.cls-12{fill:url(#linear-gradient-8);}.cls-13{fill:url(#linear-gradient-9);}.cls-14{fill:url(#linear-gradient-10);}.cls-15{fill:url(#linear-gradient-11);}.cls-16{fill:url(#linear-gradient-12);}.cls-17{fill:url(#linear-gradient-13);}.cls-18{fill:url(#linear-gradient-14);}.cls-19{fill:url(#linear-gradient-15);}.cls-20{fill:#606161;}.cls-21{fill:url(#linear-gradient-16);}.cls-22{fill:url(#linear-gradient-17);}.cls-23{fill:url(#linear-gradient-18);}.cls-24{fill:url(#linear-gradient-19);}.cls-25{fill:url(#linear-gradient-20);}.cls-26{fill:#fff;}.cls-27,.cls-43{fill:#f5650f;}.cls-28{fill:url(#linear-gradient-21);}.cls-29{fill:#f55762;}.cls-30{fill:url(#linear-gradient-22);}.cls-31{fill:#db506b;}.cls-32{fill:url(#linear-gradient-23);}.cls-33,.cls-42{fill:#ed0b76;}.cls-34{fill:url(#linear-gradient-24);}.cls-36{fill:#062142;}.cls-37{fill:#03111f;}.cls-38{fill:url(#linear-gradient-25);}.cls-39{fill:url(#linear-gradient-26);}.cls-40{fill:url(#linear-gradient-27);}.cls-41{fill:url(#linear-gradient-28);}.cls-44{opacity:0.51;}.cls-45{fill:url(#linear-gradient-29);}</style><linearGradient id="linear-gradient" x1="4.86" y1="246.29" x2="538.51" y2="246.29" gradientUnits="userSpaceOnUse"><stop offset="0" stop-color="#f5650f"/><stop offset="1" stop-color="#ed0b76"/></linearGradient><linearGradient id="linear-gradient-2" x1="386.83" y1="162.24" x2="388.57" y2="322.58" gradientTransform="matrix(1, 0, 0, -1, -4.86, 487.37)" gradientUnits="userSpaceOnUse"><stop offset="0" stop-color="#010101" stop-opacity="0"/><stop offset="0.95" stop-color="#010101"/></linearGradient><linearGradient id="linear-gradient-3" x1="-200.93" y1="495.94" x2="464.51" y2="152.82" gradientTransform="matrix(1, 0, 0, -1, -4.86, 487.37)" gradientUnits="userSpaceOnUse"><stop offset="0" stop-color="#fff" stop-opacity="0"/><stop offset="0.07" stop-color="#fff" stop-opacity="0.22"/><stop offset="0.16" stop-color="#fff" stop-opacity="0.45"/><stop offset="0.25" stop-color="#fff" stop-opacity="0.65"/><stop offset="0.33" stop-color="#fff" stop-opacity="0.8"/><stop offset="0.4" stop-color="#fff" stop-opacity="0.91"/><stop offset="0.46" stop-color="#fff" stop-opacity="0.98"/><stop offset="0.51" stop-color="#fff"/></linearGradient><linearGradient id="linear-gradient-4" x1="179.97" y1="73.64" x2="263.84" y2="280.19" gradientTransform="matrix(1, 0, 0, -1, -6.84, 491.99)" xlink:href="#linear-gradient-2"/><linearGradient id="linear-gradient-5" x1="163.83" y1="83.15" x2="388.42" y2="377.05" gradientTransform="matrix(1, 0, 0, -1, -6.84, 491.99)" xlink:href="#linear-gradient-2"/><linearGradient id="linear-gradient-6" x1="230.68" y1="272.25" x2="143.86" y2="226.51" gradientTransform="matrix(1, 0, 0, -1, -6.84, 491.99)" xlink:href="#linear-gradient-2"/><linearGradient id="linear-gradient-7" x1="197.14" y1="260.58" x2="54.22" y2="281.68" gradientTransform="matrix(1, 0, 0, -1, -6.84, 491.99)" xlink:href="#linear-gradient-2"/><linearGradient id="linear-gradient-8" x1="76.19" y1="220.9" x2="95.28" y2="220.9" gradientTransform="matrix(0.88, -0.47, -0.47, -0.88, 219.56, 403.55)" gradientUnits="userSpaceOnUse"><stop offset="0" stop-color="#e2c4d3"/><stop offset="0.42" stop-color="#e7d1cd"/><stop offset="1" stop-color="#ede6c8"/></linearGradient><linearGradient id="linear-gradient-9" x1="187.73" y1="306.36" x2="279.22" y2="435.3" gradientTransform="matrix(1, 0, 0, -1, -6.84, 491.99)" xlink:href="#linear-gradient-2"/><linearGradient id="linear-gradient-10" x1="199.99" y1="236.61" x2="246.05" y2="236.61" gradientTransform="matrix(1, 0, 0, -1, -6.84, 491.99)" xlink:href="#linear-gradient-8"/><linearGradient id="linear-gradient-11" x1="258.54" y1="237.25" x2="309.51" y2="237.25" gradientTransform="matrix(1, 0, 0, -1, -6.84, 491.99)" xlink:href="#linear-gradient-8"/><linearGradient id="linear-gradient-12" x1="260.83" y1="249.11" x2="271.92" y2="204.41" xlink:href="#linear-gradient-2"/><linearGradient id="linear-gradient-13" x1="308.78" y1="326.44" x2="355.23" y2="54" xlink:href="#linear-gradient-2"/><linearGradient id="linear-gradient-14" x1="311.17" y1="326.21" x2="357.23" y2="55.96" xlink:href="#linear-gradient-2"/><linearGradient id="linear-gradient-15" x1="289.88" y1="272.89" x2="384.55" y2="228.64" xlink:href="#linear-gradient-2"/><linearGradient id="linear-gradient-16" x1="263.04" y1="188.72" x2="170.5" y2="63.95" gradientTransform="matrix(1, 0, 0, -1, -6.84, 491.99)" xlink:href="#linear-gradient-2"/><linearGradient id="linear-gradient-17" x1="289.72" y1="123.7" x2="167.56" y2="176.21" gradientTransform="matrix(1, 0, 0, -1, -6.84, 491.99)" xlink:href="#linear-gradient-2"/><linearGradient id="linear-gradient-18" x1="290.28" y1="238.86" x2="291.45" y2="209.01" xlink:href="#linear-gradient-2"/><linearGradient id="linear-gradient-19" x1="264.07" y1="237.03" x2="265.63" y2="203.76" xlink:href="#linear-gradient-2"/><linearGradient id="linear-gradient-20" x1="186.03" y1="345.95" x2="241.85" y2="345.95" gradientTransform="matrix(1, 0, 0, -1, -6.84, 491.99)" xlink:href="#linear-gradient-8"/><linearGradient id="linear-gradient-21" x1="320.69" y1="621.65" x2="395.56" y2="678.22" gradientTransform="matrix(0.78, 0.63, 0.63, -0.78, -339.51, 388.72)" xlink:href="#linear-gradient-2"/><linearGradient id="linear-gradient-22" x1="335.39" y1="633.78" x2="442.76" y2="712.27" gradientTransform="matrix(0.78, 0.63, 0.63, -0.78, -339.51, 388.65)" xlink:href="#linear-gradient-2"/><linearGradient id="linear-gradient-23" x1="352.86" y1="644.95" x2="511.02" y2="799.98" gradientTransform="matrix(0.78, 0.63, 0.63, -0.78, -339.51, 388.56)" xlink:href="#linear-gradient-2"/><linearGradient id="linear-gradient-24" x1="373.5" y1="662.66" x2="609.89" y2="879.8" gradientTransform="matrix(0.78, 0.63, 0.63, -0.78, -339.51, 388.48)" gradientUnits="userSpaceOnUse"><stop offset="0" stop-color="#010101" stop-opacity="0"/><stop offset="0.36" stop-color="#010101" stop-opacity="0.36"/><stop offset="0.95" stop-color="#010101"/></linearGradient><linearGradient id="linear-gradient-25" x1="395.41" y1="680.44" x2="526.84" y2="788.04" gradientTransform="matrix(0.78, 0.62, 0.62, -0.78, -343.09, 384.75)" xlink:href="#linear-gradient-3"/><linearGradient id="linear-gradient-26" x1="401.93" y1="684.32" x2="476.08" y2="748.35" gradientTransform="matrix(0.78, 0.63, 0.63, -0.78, -339.51, 388.23)" xlink:href="#linear-gradient-3"/><linearGradient id="linear-gradient-27" x1="155.96" y1="96.74" x2="427.34" y2="275.58" xlink:href="#linear-gradient-2"/><linearGradient id="linear-gradient-28" x1="211.34" y1="256.34" x2="220.52" y2="256.34" xlink:href="#linear-gradient-2"/><linearGradient id="linear-gradient-29" x1="191.99" y1="369.53" x2="237.73" y2="353.92" gradientTransform="matrix(1, 0, 0, -1, -6.84, 491.99)" xlink:href="#linear-gradient-2"/></defs><title>designer_</title><g class="cls-1"><path class="cls-2" d="M538.45,194.45c-.73,22.19-9.37,43.32-19.34,63.11-16.84,33.46-38.15,65.55-48,102-4.32,15.91-2.14,32.72-3.62,48.26-1.25,13.14-5.09,25.4-17.61,35.52-13.25,10.71-31.61,12-48.66,12-37,.23-75.36-2.51-109.49,11.68-10.11,4.25-19.64,9.87-30,13.45-20.16,7-42.17,5.68-63.48,4.35-20.75-1.33-41.84-2.73-61.49-9.41S98.58,456,89.54,437.26c-4.44-9.19-6.43-19.34-9.31-29.19a85.3,85.3,0,0,0-4.87-13C62.15,367.86,30,354.24,15.14,327.87c-10.26-18.24-10.85-40.25-10-61.18C6,244.64,8.42,222.11,18,202.24,28,181.68,45,165.39,63,151.32,95.84,125.66,132.83,106,167.54,83,193.88,65.61,219,46.22,246.69,31.12s58.71-26,90.21-24.33c45.86,2.29,86.27,30.06,121.79,59.13C479,82.46,498.8,100,513.94,121.38S539.38,168.31,538.45,194.45Z" transform="translate(-4.86 -6.63)"/></g><path class="cls-3" d="M467.51,407.86c-1.25,13.14-5.09,25.4-17.61,35.52-13.25,10.71-31.61,12-48.66,12-37,.23-75.36-2.51-109.49,11.68-10.11,4.25-19.64,9.87-30,13.45-20.16,7-42.17,5.68-63.48,4.35-20.75-1.33-41.84-2.73-61.49-9.41S98.58,456,89.54,437.26c-4.44-9.19-6.43-19.34-9.31-29.19,55.21-13.93,115.73,8.46,170.8-7.16,12.92-3.7,25.22-9.38,38.29-12.55,34-8.32,62.19,4.53,95.2,8.27,27.51,3.06,51.92-.82,79.14,9.52C464.93,406.68,466.27,407.23,467.51,407.86Z" transform="translate(-4.86 -6.63)"/><rect class="cls-4" x="372.24" y="262.92" width="18.45" height="154.05"/><rect class="cls-5" x="372.58" y="262.92" width="18.45" height="154.05"/><rect class="cls-4" x="10.49" y="24" width="186.34" height="253.98"/><rect class="cls-6" x="10.49" y="24" width="186.34" height="253.98"/><circle class="cls-7" cx="129.57" cy="141.1" r="48.97"/><path class="cls-4" d="M168.47,300.91h31.32a45.34,45.34,0,0,1,45.34,45.29v98.89h-122V346.2A45.34,45.34,0,0,1,168.47,300.91Z" transform="translate(-4.86 -6.63)"/><path class="cls-8" d="M245.13,346.27v98.82h-122V346.27a42.71,42.71,0,0,1,1.15-10,45.28,45.28,0,0,1,44.23-35.35h31.31A45.34,45.34,0,0,1,245.13,346.27Z" transform="translate(-4.86 -6.63)"/><path class="cls-9" d="M245.13,346.27v32.27c-.25.33-.52.67-.77,1q-6.42-17.28-12.85-34.64c-6.43,12-7.87,26.18-6.94,39.78s4,27,6.24,40.39c.51,3.11,1,6.39-.26,9.3-2.52,6-11.23,7.18-16.66,3.62s-8-10.08-9.42-16.42c-3.89-18.21.19-37.12-1-55.69-.45-6.5-1.63-13.26-5.58-18.49-5.65-7.42-15.51-9.93-24.63-12-12.93-2.92-27.17-5.65-38.77.7-1.85,1-3.73,2.26-5.84,2.29a5.66,5.66,0,0,1-4.39-2.1,45.28,45.28,0,0,1,44.21-35.34h31.31A45.34,45.34,0,0,1,245.13,346.27Z" transform="translate(-4.86 -6.63)"/><path class="cls-4" d="M171.24,172.05c-1.72,5.17-1.16,10.79-.56,16.21.1,1,.48,2.28,1.5,2.34a2.09,2.09,0,0,0,1.11-.38,15.31,15.31,0,0,0,3.85-3.28,6.46,6.46,0,0,1,2.09-1.94c2-.91,4.13.85,6.12,1.82a9,9,0,0,0,5.39.74c.48-.09,1-.3,1.15-.77a1.15,1.15,0,0,0-.11-.71c-1-2.71-3.66-4.44-5.36-6.82a16,16,0,0,1-2.64-7.89c-.22-2.18.74-6.07-1.14-7.65C178.23,160,172.33,168.78,171.24,172.05Z" transform="translate(-4.86 -6.63)"/><path class="cls-4" d="M199,170.59c1.46,1.42,12.83,11.47,13.76,13.29a60.63,60.63,0,0,1,4.3,10,66.06,66.06,0,0,1,2,11.84l1.86,16.76a11.09,11.09,0,0,0,1.33,4.87,10.79,10.79,0,0,0,4.14,3.21,217.93,217.93,0,0,0,28.49,12.71,41.05,41.05,0,0,1-.57,10,.95.95,0,0,1-1.33.94c-15.37-2.75-29.85-9.41-45.26-12a5.31,5.31,0,0,1-2.5-.83,5.25,5.25,0,0,1-1.4-2.22c-1.23-3-2.48-6-3.46-9.07-1.42-4.45-2.31-9-3.65-13.52-.8-2.67-1.77-5.32-2.31-8.07-.82-4.2-.6-8.52-.38-12.79a36.15,36.15,0,0,1,1-8.08C196.64,182.22,192.9,164.71,199,170.59Z" transform="translate(-4.86 -6.63)"/><path class="cls-10" d="M208.31,185.15c1.46,1.42,3.48-3.09,4.41-1.27a60.63,60.63,0,0,1,4.3,10,66.06,66.06,0,0,1,2,11.84l1.86,16.76a11.09,11.09,0,0,0,1.33,4.87,10.79,10.79,0,0,0,4.14,3.21,217.93,217.93,0,0,0,28.49,12.71,41.05,41.05,0,0,1-.57,10,.95.95,0,0,1-1.33.94c-15.37-2.75-29.85-9.41-45.26-12a5.31,5.31,0,0,1-2.5-.83,5.25,5.25,0,0,1-1.4-2.22c-1.23-3-2.48-6-3.46-9.07-1.42-4.45-2.31-9-3.65-13.52-.8-2.67-1.77-5.32-2.31-8.07-.82-4.2-.6-8.52-.38-12.79a36.15,36.15,0,0,1,1-8.08C196.64,182.22,202.26,179.26,208.31,185.15Z" transform="translate(-4.86 -6.63)"/><path class="cls-4" d="M213.92,197.19l-3.12,19.1c-2,7.79-7.54,14.44-11.18,22.48a68,68,0,0,1-2.63,7.52c-1.72,2.14-.21,4.73-.14,7.46.16,5.46,2.13,10.7,4.19,15.81a8.59,8.59,0,0,1,.92,4.16c-.31,2.71-3,4.45-5.51,5.63a61.4,61.4,0,0,1-37.88,4.41,63.58,63.58,0,0,1-18.18-6.66,2.48,2.48,0,0,1-1.42-3.59c2.59-8.48,7.29-16.28,9.15-24.94,1.8-8.41.82-17.12,1.2-25.69a81,81,0,0,1,5.22-25.22c1.84-4.87,4.23-9.61,8-13.24,6.39-6.22,15.79-8.3,24.74-9.19a22.48,22.48,0,0,1,7.09.11c3.09.68,5.62,2.5,8.38,3.9,2.23,1.12,5.37,1.43,7.4,2.65C214.54,184.59,213.77,192.6,213.92,197.19Z" transform="translate(-4.86 -6.63)"/><path class="cls-11" d="M215.41,197.19l-4.61,19.1c-1.89,6.94-6.41,14.19-9.33,18.52-3.3,2.67-1.85,8.17-4.48,11.48-1.72,2.14,1.27,4.73,1.35,7.46.16,5.46,2.13,10.7,4.18,15.81a8.48,8.48,0,0,1,.93,4.16c-.31,2.71-3,4.45-5.51,5.63a61.41,61.41,0,0,1-37.88,4.41,63.36,63.36,0,0,1-18.18-6.66,3.31,3.31,0,0,1-1.52-1.32,3.23,3.23,0,0,1,.1-2.27c2.59-8.48,7.29-16.28,9.15-24.94,1.8-8.41.81-17.12,1.19-25.69A81,81,0,0,1,156,197.66c1.84-4.87,4.22-9.61,8-13.24,6.38-6.22,15.78-8.3,24.74-9.19a22.49,22.49,0,0,1,7.09.11c3.08.68,5.61,2.5,8.38,3.9,2.23,1.12,5.37,1.43,7.39,2.65C216,184.59,215.25,192.6,215.41,197.19Z" transform="translate(-4.86 -6.63)"/><path class="cls-12" d="M185,153.39a75,75,0,0,0-1.72,11.75c-.26,3.67-.2,7.57,1.63,10.77a15.41,15.41,0,0,0,4.08,4.43,12.69,12.69,0,0,0,6.32,3,6.16,6.16,0,0,0,6.07-2.75c1-1.86.71-4.13.36-6.21l-1-6.32a19.29,19.29,0,0,0-2.09-6.92c-2.3-3.84-6.88-5.58-11.15-6.89" transform="translate(-4.86 -6.63)"/><path class="cls-13" d="M196.77,179.25a6.1,6.1,0,0,0,2.31,1.46,2.33,2.33,0,0,0,2.51-.68,3.56,3.56,0,0,0,.5-1.94q.16-3.37.24-6.76a19,19,0,0,0-.41-5.37c-.73-2.77-2.59-5.1-4.49-7.24s-5.39-6.16-8.67-6c-3.6.14-2.45,5.4-2.09,7.71A32.34,32.34,0,0,0,196.77,179.25Z" transform="translate(-4.86 -6.63)"/><path class="cls-4" d="M155.79,183.27c-1.72,3.6-2.63,7.54-3.74,11.38-1.2,4.15-2.65,8.23-3.59,12.45A105.54,105.54,0,0,0,146.63,223c-.35,5.49-.7,11-.7,16.54,0,4.12.37,8.65,3.3,11.55,2.27,2.24,5.59,3,8.76,3.56a257.72,257.72,0,0,0,34.26,4,3.2,3.2,0,0,0,2.37-.51,3,3,0,0,0,.76-1.79,34.62,34.62,0,0,0,.51-8.38L167.43,239c-.45-15,6.45-29.19,8.47-44a83.83,83.83,0,0,1,1.38-9.19c.77-3,2.09-5.9,2.83-8.92.58-2.44,1.31-7.57-1.78-8.69-2.38-.86-6.42,1-8.57,1.84A27.58,27.58,0,0,0,155.79,183.27Z" transform="translate(-4.86 -6.63)"/><path class="cls-14" d="M212.72,249.09c4.29-.45,8.59-1.17,12.9-.89s8.76,1.69,11.68,4.86a6.62,6.62,0,0,1,1.85,3.47A3.5,3.5,0,0,1,237.7,260c-1.34.81-3,.34-4.61.33-3.68,0-7.25,2.59-10.78,1.61-2.2-.62-4-2.56-6.26-2.64-2.71-.1-4.78,2.47-7.41,3.14a8.63,8.63,0,0,1-6.33-1.38c-1.43-.84-2.72-1.89-4.13-2.77-1.22-.77-3-1.23-4.06-2.18-1.7-1.52-1-3.06.67-4.38C199.3,248.1,207.32,249.68,212.72,249.09Z" transform="translate(-4.86 -6.63)"/><path class="cls-15" d="M278,246.44a99.27,99.27,0,0,1,10.77.46,22.87,22.87,0,0,1,8.34,2.27,11,11,0,0,1,5.56,6.39c-4.2,2.3-10-.18-13.92,2.57a30,30,0,0,0-2.3,2.07c-3.18,2.76-7.72,3.29-11.93,3.28a25.76,25.76,0,0,1-10.14-1.64c-3-1.28-16.4-11.55-11.68-14.85,2.55-1.78,8.12-.67,11-.65Z" transform="translate(-4.86 -6.63)"/><polygon class="cls-4" points="237.49 252.17 238.58 248.31 280 246.76 280.64 251.83 237.49 252.17"/><polygon class="cls-16" points="237.49 252.17 238.58 248.31 280 246.76 280.64 251.83 237.49 252.17"/><polygon class="cls-4" points="358.93 230.51 243.04 230.51 258.56 147.87 374.45 147.87 358.93 230.51"/><polygon class="cls-17" points="374.43 147.86 358.92 230.51 243.04 230.51 258.54 147.86 374.43 147.86"/><polygon class="cls-18" points="374.43 147.86 358.92 230.51 247.73 230.51 263.23 147.86 374.43 147.86"/><polygon class="cls-4" points="298.15 192.73 312.35 247.15 280.64 247.15 276.49 251.83 334.19 251.83 316.52 187.87 300.66 187.36 298.15 192.73"/><polygon class="cls-19" points="298.15 192.73 312.35 247.15 280.64 247.15 276.49 251.83 334.19 251.83 316.52 187.87 300.66 187.36 298.15 192.73"/><polygon class="cls-4" points="300.66 187.36 316.52 247.15 280.64 247.15 280.64 251.83 338.36 251.83 320.67 187.87 300.66 187.36"/><path class="cls-20" d="M302.3,428.24a2.46,2.46,0,0,1-.85,1.71c-8.45,8.93-23.08,8.56-34.49,4-2-.82-4.06-1.81-5.32-3.56-1.4-1.94-1.58-4.53-1.7-7-.89-21.34-1-42.82-4.76-63.89-1.25-7.09-2.92-14.11-3.8-21.27-1.22-10.27-.67-20.68-1.07-31a3.06,3.06,0,0,0-.68-2.14,2.81,2.81,0,0,0-2-.56c-3.06-.07-6.09-.11-9.16-.14-.07,21.72-1.51,42.39-1.11,64.1.26,12.49-2.4,24.86-3.1,37.34a26,26,0,0,0,.26,6.53c1.44,6.87,7.64,11.52,11.37,17.47a8.88,8.88,0,0,1,1.62,5c-.18,2.84-2.76,5.05-5.53,5.76s-5.69.07-8.42-.67a20,20,0,0,1-5.84-2.39,20.43,20.43,0,0,1-3.83-3.6c-2.22-2.51-4.36-5.12-6.4-7.78a11.38,11.38,0,0,1-1.94-3.36c-1-3.33,1-6.72,2.39-9.89a34.07,34.07,0,0,0,2-22.16,64.88,64.88,0,0,1-2.51-16.54q-.18-27.93-.86-55.84a206.36,206.36,0,0,1-42.16,1.14c-9.46-.66-19.58-2.33-26.45-8.87-7.42-7-9.34-18.05-9.56-28.22-.08-3.62,0-7.38,1.81-10.49,13.69-.1,32.27,1.37,46,1.26a42.51,42.51,0,0,1,9.42.63,33.57,33.57,0,0,0,4.14.22c6.93.26,21.19.67,35.41,3.47a.28.28,0,0,0,.18,0c9.09,1.81,18.14,4.58,25.22,9,.67.41,1.34.82,1.95,1.25a43.43,43.43,0,0,1,3.55,2.78l.11.11a24.56,24.56,0,0,1,8.23,15.84c.12,1.11.23,2.4.3,3.84s.11,3.11.11,4.87v2c.19,18.49-1.29,49.63.41,73.86.77,10.7,3.13,22.86,12.22,28.69,4.39,2.84,9.86,3.8,13.92,7.13A2.12,2.12,0,0,1,302.3,428.24Z" transform="translate(-4.86 -6.63)"/><path class="cls-21" d="M302.3,428.24a2.46,2.46,0,0,1-.85,1.71c-8.45,8.93-23.08,8.56-34.49,4-2-.82-4.06-1.81-5.32-3.56-1.4-1.94-1.58-4.53-1.7-7-.89-21.34-1-42.82-4.76-63.89-1.25-7.09-2.92-14.11-3.8-21.27-1.22-10.27-.67-20.68-1.07-31a3.06,3.06,0,0,0-.68-2.14,2.81,2.81,0,0,0-2-.56c-3.06-.07-6.09-.11-9.16-.14-.07,21.72-1.51,42.39-1.11,64.1.26,12.49-2.4,24.86-3.1,37.34a26,26,0,0,0,.26,6.53c1.44,6.87,7.64,11.52,11.37,17.47a8.88,8.88,0,0,1,1.62,5c-.18,2.84-2.76,5.05-5.53,5.76s-5.69.07-8.42-.67a20,20,0,0,1-5.84-2.39,20.43,20.43,0,0,1-3.83-3.6c-2.22-2.51-4.36-5.12-6.4-7.78a11.38,11.38,0,0,1-1.94-3.36c-1-3.33,1-6.72,2.39-9.89a34.07,34.07,0,0,0,2-22.16,64.88,64.88,0,0,1-2.51-16.54q-.18-27.93-.86-55.84a206.36,206.36,0,0,1-42.16,1.14c-9.46-.66-19.58-2.33-26.45-8.87-7.42-7-9.34-18.05-9.56-28.22-.08-3.62,0-7.38,1.81-10.49,13.69-.1,32.27,1.37,46,1.26a42.51,42.51,0,0,1,9.42.63,33.57,33.57,0,0,0,4.14.22c6.93.26,21.19.67,35.41,3.47a.28.28,0,0,0,.18,0c9.09,1.81,18.14,4.58,25.22,9,.67.41,1.34.82,1.95,1.25a43.43,43.43,0,0,1,3.55,2.78l.11.11a24.56,24.56,0,0,1,8.23,15.84c.12,1.11.23,2.4.3,3.84s.11,3.11.11,4.87v2c.19,18.49-1.29,49.63.41,73.86.77,10.7,3.13,22.86,12.22,28.69,4.39,2.84,9.86,3.8,13.92,7.13A2.12,2.12,0,0,1,302.3,428.24Z" transform="translate(-4.86 -6.63)"/><path class="cls-22" d="M302.3,428.24a2.46,2.46,0,0,1-.85,1.71c-8.45,8.93-23.08,8.56-34.49,4-2-.82-4.06-1.81-5.32-3.56-1.4-1.94-1.58-4.53-1.7-7-.89-21.34-1-42.82-4.76-63.89-1.25-7.09-2.92-14.11-3.8-21.27-1.22-10.27-.67-20.68-1.07-31a3.06,3.06,0,0,0-.68-2.14,2.81,2.81,0,0,0-2-.56c-3.06-.07-6.09-.11-9.16-.14,0,0,.26-6.43-2.07-9.27s-43.94-15.88-43.94-15.88-2.66-3.51,7.24-5.21c.7-.07,1.47-.18,2.28-.3,6.13-.73,19.73.67,33.09,3.77a.28.28,0,0,0,.18,0c9.42,2.22,18.69,5.28,25.23,9,.66.41,1.33.82,1.94,1.26a22.59,22.59,0,0,1,3.55,2.77l.11.11a14.28,14.28,0,0,1,1.73,2.07,38.92,38.92,0,0,1,6.81,17.61,28.31,28.31,0,0,1,.11,4.87,10,10,0,0,1-.14,1.44l.18.55c.19,18.49-1.29,49.63.41,73.86.77,10.7,3.13,22.86,12.22,28.69,4.39,2.84,9.86,3.8,13.92,7.13A2.18,2.18,0,0,1,302.3,428.24Z" transform="translate(-4.86 -6.63)"/><rect class="cls-4" x="161.25" y="251.99" width="248.72" height="13.17"/><rect class="cls-4" x="202.41" y="262.92" width="18.45" height="183.86"/><rect class="cls-23" x="161.25" y="251.99" width="248.78" height="4.43"/><rect class="cls-4" x="223.46" y="264.48" width="73.13" height="13.52"/><rect class="cls-24" x="223.46" y="264.48" width="73.13" height="6.76"/><path class="cls-25" d="M215.52,174.12a11.52,11.52,0,0,1-5.34,3.25c-3.25.63-6.41-1.35-9-3.48a51.81,51.81,0,0,1-14.39-19.33,61.56,61.56,0,0,0-3-6.63c-1.4-2.41-3.34-4.55-4.24-7.19s-.46-9,2-10.18a19,19,0,0,1,2.44-.74c3-1,5.24-.72,7.25-3.18,4.46-5.49,9.83-11.14,16.87-12,4.67-.54,9.28,1.21,13.55,3.16s10.21,5.1,12.28,9.57.33,10.86-.67,15.29A61.53,61.53,0,0,1,215.52,174.12Z" transform="translate(-4.86 -6.63)"/><rect class="cls-26" x="290.99" y="75.5" width="171.44" height="50.08" transform="translate(-5.14 -5.58) rotate(-0.16)"/><rect class="cls-27" x="302.99" y="89.28" width="20.94" height="33.7" transform="translate(-5.29 -5.37) rotate(-0.23)"/><rect class="cls-28" x="302.99" y="89.2" width="20.94" height="33.7" transform="translate(-5.29 -5.37) rotate(-0.23)"/><rect class="cls-29" x="323.79" y="89.27" width="20.94" height="33.7" transform="translate(-5.29 -5.29) rotate(-0.23)"/><rect class="cls-30" x="323.79" y="89.19" width="20.94" height="33.7" transform="translate(-5.29 -5.29) rotate(-0.23)"/><rect class="cls-31" x="344.61" y="89.24" width="20.94" height="33.7" transform="translate(-5.29 -5.2) rotate(-0.23)"/><rect class="cls-32" x="344.61" y="89.16" width="20.94" height="33.7" transform="translate(-5.29 -5.2) rotate(-0.23)"/><rect class="cls-33" x="365.41" y="89.22" width="20.94" height="33.7" transform="translate(-5.29 -5.12) rotate(-0.23)"/><rect class="cls-34" x="365.41" y="89.15" width="20.94" height="33.7" transform="translate(-5.29 -5.12) rotate(-0.23)"/><rect class="cls-35" x="386.21" y="89.21" width="20.94" height="33.7" transform="translate(-5.29 -5.04) rotate(-0.23)"/><rect class="cls-36" x="407.27" y="89.07" width="20.94" height="33.7" transform="translate(-5.28 -4.95) rotate(-0.23)"/><rect class="cls-37" x="427.83" y="89.17" width="20.94" height="33.7" transform="translate(-5.28 -4.87) rotate(-0.23)"/><polygon class="cls-38" points="422.9 116.31 402.57 116.17 402.41 82.46 422.75 82.61 422.9 116.31"/><rect class="cls-39" x="427.83" y="89.21" width="20.94" height="33.7" transform="matrix(1, 0, 0, 1, -5.28, -4.87)"/><rect class="cls-4" x="196.18" y="262.92" width="18.45" height="183.86"/><rect class="cls-40" x="196.18" y="262.92" width="18.45" height="183.86"/><polygon class="cls-4" points="212.72 241.77 206.48 221.32 208.73 220.11 215.66 241.95 212.72 241.77"/><polygon class="cls-41" points="212.72 241.77 206.48 221.32 208.73 220.11 215.66 241.95 212.72 241.77"/><circle class="cls-42" cx="105.97" cy="83.38" r="48.97"/><circle class="cls-43" cx="72.89" cy="144.22" r="48.97"/><polygon class="cls-26" points="91.02 142.91 91.93 160.33 96.35 153.82 101.72 162.15 105.1 159.8 98.95 152.13 105.97 150.96 91.02 142.91"/><rect class="cls-44" x="35.09" y="218.72" width="87.34" height="8.32"/><rect class="cls-44" x="35.09" y="226.69" width="87.34" height="8.32"/><rect class="cls-44" x="35.09" y="226.69" width="87.34" height="8.32"/><path class="cls-20" d="M186.55,154.58c-.27-2.37-5.5-12.06-6.14-14.36-1.07-3.81.05-9.29,5-9.27,4.17,0,6.7,5.33,7.87,8.58,4-1.45,20.06-10.57,19.86-15.71.11,2.92,3.32,4.65,6.18,5.19s6.06.58,8.27,2.48c1.71,1.46,2.81,4,5,4.26a4.36,4.36,0,0,0,2.91-.89c3.35-2.25,4.72-6.69,4.16-10.7s-2.75-7.57-5.3-10.71c-9-10.88-23.34-17.35-37.35-15.89s-18.41,11.35-22.63,24.81c-2.24,7.15,5.65,23,4.14,30.32C178.59,152.69,183.43,155.52,186.55,154.58Z" transform="translate(-4.86 -6.63)"/><path class="cls-45" d="M186.55,154.58c-.27-2.37-5.5-12.06-6.14-14.36-1.07-3.81.05-9.29,5-9.27,4.17,0,6.7,5.33,7.87,8.58,4-1.45,20.06-10.57,19.86-15.71.11,2.92,3.32,4.65,6.18,5.19s6.06.58,8.27,2.48c1.71,1.46,2.81,4,5,4.26a4.36,4.36,0,0,0,2.91-.89c3.35-2.25,4.72-6.69,4.16-10.7s-2.75-7.57-5.3-10.71c-9-10.88-23.34-17.35-37.35-15.89s-18.41,11.35-22.63,24.81c-2.24,7.15,5.65,23,4.14,30.32C178.59,152.69,183.43,155.52,186.55,154.58Z" transform="translate(-4.86 -6.63)"/></svg>